# xmcd
#
# Track frame offsets: 
#        150
#        15365
#        33650
#        59257
#        74053
#        98434
#        113728
#        126745
#        144069
#        157151
#        171615
#
# Disc length: 2498 seconds
#
# Revision: 0
# Processed by: cddbd v1.5.2PL0 Copyright (c) Steve Scherf et al.
# Submitted via: ExactAudioCopyFreeDBPlugin 1.0
#
DISCID=9c09c00b
DTITLE=Fred Klee Band - Don't Mess With My Gator
DYEAR=2001
DGENRE=Blues
TTITLE0=Dead At Rampart
TTITLE1=Deadeyes Generation
TTITLE2=Since I've Been Loving You
TTITLE3=I've Got My Mind Ramblin'
TTITLE4=Bad Love
TTITLE5=My Baby Doggy Cool
TTITLE6=It's Too Late
TTITLE7=Goodbye To Genoa
TTITLE8=I'm Tired
TTITLE9=Blues Power
TTITLE10=Feel The Train' Coming
EXTD=
EXTT0=
EXTT1=
EXTT2=
EXTT3=
EXTT4=
EXTT5=
EXTT6=
EXTT7=
EXTT8=
EXTT9=
EXTT10=
PLAYORDER=
